<svg width="396" height="396" viewBox="0 0 396 396" fill="none" xmlns="http://www.w3.org/2000/svg">
<g clip-path="url(#clip0_501_40)">
<path d="M197.849 0C122.131 0 60.531 61.609 60.531 137.329C60.531 210.216 185.122 380.506 190.427 387.717L195.378 394.455C195.957 395.247 196.879 395.71 197.849 395.71C198.834 395.71 199.75 395.247 200.335 394.455L205.283 387.717C210.591 380.506 335.179 210.216 335.179 137.329C335.179 61.609 273.569 0 197.849 0ZM197.849 88.138C224.979 88.138 247.04 110.2 247.04 137.329C247.04 164.444 224.978 186.52 197.849 186.52C170.735 186.52 148.658 164.444 148.658 137.329C148.658 110.2 170.734 88.138 197.849 88.138Z" fill="#88869D"/>
</g>
<defs>
<clipPath id="clip0_501_40">
<rect width="395.71" height="395.71" fill="white"/>
</clipPath>
</defs>
</svg>
